<svg width="247" height="74" viewBox="0 0 247 74" fill="none" xmlns="http://www.w3.org/2000/svg">
    <path d="M36.5 0C16.3416 0 0 16.3416 0 36.5C0 56.6584 16.3416 73 36.5 73C56.6584 73 73 56.6584 73 36.5C73 16.3416 56.6584 0 36.5 0ZM52.3853 52.9715C51.9212 53.7656 51.0859 54.2084 50.228 54.2085C49.8002 54.2085 49.367 54.0984 48.971 53.8671C42.4118 50.0339 34.8345 49.4179 29.6316 49.5761C23.8682 49.7514 19.6417 50.8891 19.5997 50.9007C18.2712 51.2636 16.8982 50.4818 16.5338 49.1534C16.1695 47.8252 16.9486 46.4531 18.2765 46.0873C18.467 46.0349 23.0151 44.7996 29.3397 44.591C33.065 44.4681 36.6514 44.7277 39.9978 45.3625C44.2363 46.1665 48.1026 47.5779 51.4896 49.5573C52.6799 50.2528 53.0807 51.7815 52.3853 52.9715ZM57.0256 43.334C56.4759 44.2747 55.4866 44.7991 54.4702 44.7992C53.9636 44.7992 53.4503 44.669 52.9812 44.3949C45.212 39.8542 36.2361 39.1248 30.0733 39.3121C23.2464 39.5198 18.2399 40.8675 18.1903 40.8812C16.6169 41.3105 14.9903 40.3851 14.5586 38.8116C14.1271 37.2381 15.0501 35.613 16.6229 35.1796C16.8486 35.1175 22.2358 33.6541 29.7275 33.4071C34.1406 33.2617 38.3886 33.5691 42.3524 34.321C47.373 35.2735 51.9527 36.9452 55.9647 39.2897C57.3747 40.1135 57.8496 41.9243 57.0256 43.334ZM59.8782 34.5711C59.2566 34.5711 58.6271 34.4113 58.0517 34.075C39.5808 23.2803 15.6205 29.6978 15.3807 29.764C13.4496 30.2961 11.4533 29.162 10.9214 27.231C10.3893 25.3001 11.5234 23.3036 13.4544 22.7717C13.7311 22.6954 20.3392 20.9005 29.5285 20.5975C34.9419 20.4192 40.1523 20.7962 45.0143 21.7184C51.1726 22.8867 56.7904 24.9372 61.7113 27.8131C63.4405 28.8236 64.0231 31.0446 63.0125 32.7738C62.3383 33.9277 61.1248 34.5711 59.8782 34.5711Z" fill="#00D95F"/>
    <path d="M112.32 15.8H120.048V55H114.168L97.368 31.032V55H89.64V15.8H95.52L112.32 39.712V15.8ZM133.088 43.968C134.058 47.4773 136.69 49.232 140.984 49.232C143.746 49.232 145.837 48.2987 147.256 46.432L153.08 49.792C150.317 53.7867 146.248 55.784 140.872 55.784C136.242 55.784 132.528 54.384 129.728 51.584C126.928 48.784 125.528 45.256 125.528 41C125.528 36.7813 126.909 33.272 129.672 30.472C132.434 27.6347 135.981 26.216 140.312 26.216C144.418 26.216 147.797 27.6347 150.448 30.472C153.136 33.3093 154.48 36.8187 154.48 41C154.48 41.9333 154.386 42.9227 154.2 43.968H133.088ZM132.976 38.368H147.256C146.845 36.464 145.986 35.0453 144.68 34.112C143.41 33.1787 141.954 32.712 140.312 32.712C138.37 32.712 136.765 33.216 135.496 34.224C134.226 35.1947 133.386 36.576 132.976 38.368ZM174.718 33.944H168.39V45.592C168.39 46.5627 168.633 47.272 169.118 47.72C169.604 48.168 170.313 48.4293 171.246 48.504C172.18 48.5413 173.337 48.5227 174.718 48.448V55C169.753 55.56 166.244 55.0933 164.19 53.6C162.174 52.1067 161.166 49.4373 161.166 45.592V33.944H156.294V27H161.166V21.344L168.39 19.16V27H174.718V33.944ZM187.473 31.816C188.145 30.024 189.247 28.68 190.777 27.784C192.345 26.888 194.081 26.44 195.985 26.44V34.504C193.783 34.2427 191.804 34.6907 190.049 35.848C188.332 37.0053 187.473 38.928 187.473 41.616V55H180.249V27H187.473V31.816ZM223.027 51.528C220.153 54.3653 216.643 55.784 212.499 55.784C208.355 55.784 204.846 54.3653 201.971 51.528C199.134 48.6533 197.715 45.144 197.715 41C197.715 36.856 199.134 33.3653 201.971 30.528C204.846 27.6533 208.355 26.216 212.499 26.216C216.643 26.216 220.153 27.6533 223.027 30.528C225.902 33.3653 227.339 36.856 227.339 41C227.339 45.144 225.902 48.6533 223.027 51.528ZM207.067 46.544C208.523 48 210.334 48.728 212.499 48.728C214.665 48.728 216.475 48 217.931 46.544C219.387 45.088 220.115 43.24 220.115 41C220.115 38.76 219.387 36.912 217.931 35.456C216.475 34 214.665 33.272 212.499 33.272C210.334 33.272 208.523 34 207.067 35.456C205.649 36.912 204.939 38.76 204.939 41C204.939 43.24 205.649 45.088 207.067 46.544Z" fill="#00D95F"/>
    <path d="M230.36 23.308H232.7V31H233.54V23.308H235.868V22.612H230.36V23.308ZM237.194 31H238.034V24.412L240.986 31H241.598L244.55 24.388V31H245.39V22.72H244.49L241.286 29.896L238.082 22.72H237.194V31Z" fill="#00D95F"/>
</svg>
